<svg width="328" height="328" viewBox="0 0 328 328" fill="none" xmlns="http://www.w3.org/2000/svg">
<path d="M287.492 266.336C280.385 253.872 273.388 241.955 266.5 230.584C249.007 201.501 237.199 181.056 231.076 169.248C227.468 162.36 222.603 153.723 216.48 143.336C207.624 128.467 202.813 120.321 202.048 118.9C197.784 109.935 193.52 101.735 189.256 94.3C183.352 84.0226 179.307 78.6653 177.12 78.228C176.901 77.6813 173.512 74.6746 166.952 69.208C160.392 63.7413 155.581 61.2813 152.52 61.828C150.771 63.5773 147.983 67.5133 144.156 73.636C140.22 79.868 136.667 86.0453 133.496 92.168C131.091 96.6506 124.913 107.147 114.964 123.656C105.343 139.4 100.204 147.983 99.548 149.404C96.924 154.543 86.756 172.091 69.044 202.048C56.908 222.493 47.4507 238.456 40.672 249.936L65.272 266.336H287.492ZM168.756 90.036C164.82 96.268 161.267 102.445 158.096 108.568C155.691 113.051 149.513 123.547 139.564 140.056C129.943 155.8 124.804 164.383 124.148 165.804C121.524 170.943 111.356 188.491 93.644 218.448C85.0067 232.989 77.736 245.289 71.832 255.348L54.776 245.016C60.024 236.488 66.42 225.883 73.964 213.2C83.5853 196.909 94.2453 178.159 105.944 156.948C134.917 108.841 151.372 81.2893 155.308 74.292C160.884 76.8066 166.077 80.9613 170.888 86.756C170.232 87.74 169.521 88.8333 168.756 90.036Z" fill="#FDB913"/>
</svg>
