<svg width="364" height="440" viewBox="0 0 364 440" fill="none" xmlns="http://www.w3.org/2000/svg">
<path d="M305.492 266.336C298.385 253.872 291.388 241.955 284.5 230.584C267.007 201.501 255.199 181.056 249.076 169.248C245.468 162.36 240.603 153.723 234.48 143.336C225.624 128.467 220.813 120.321 220.048 118.9C215.784 109.935 211.52 101.735 207.256 94.3C201.352 84.0226 197.307 78.6653 195.12 78.228C194.901 77.6813 191.512 74.6746 184.952 69.208C178.392 63.7413 173.581 61.2813 170.52 61.828C168.771 63.5773 165.983 67.5133 162.156 73.636C158.22 79.868 154.667 86.0453 151.496 92.168C149.091 96.6506 142.913 107.147 132.964 123.656C123.343 139.4 118.204 147.983 117.548 149.404C114.924 154.543 104.756 172.091 87.044 202.048C74.908 222.493 65.4507 238.456 58.672 249.936L83.272 266.336H305.492ZM186.756 90.036C182.82 96.268 179.267 102.445 176.096 108.568C173.691 113.051 167.513 123.547 157.564 140.056C147.943 155.8 142.804 164.383 142.148 165.804C139.524 170.943 129.356 188.491 111.644 218.448C103.007 232.989 95.736 245.289 89.832 255.348L72.776 245.016C78.024 236.488 84.42 225.883 91.964 213.2C101.585 196.909 112.245 178.159 123.944 156.948C152.917 108.841 169.372 81.2893 173.308 74.292C178.884 76.8066 184.077 80.9613 188.888 86.756C188.232 87.74 187.521 88.8333 186.756 90.036Z" fill="#FDB913"/>
<path d="M3.04688 408V397.746L11.3086 395.988V356.672L2.16797 354.914V344.602H27.1875L27.8906 352.98C29.9219 349.934 32.4609 347.59 35.5078 345.949C38.5938 344.27 42.1484 343.43 46.1719 343.43C50.2344 343.43 53.7109 344.328 56.6016 346.125C59.5312 347.922 61.7187 350.637 63.1641 354.27C65.1172 350.871 67.6562 348.215 70.7812 346.301C73.9062 344.387 77.5781 343.43 81.7969 343.43C88.0469 343.43 92.9688 345.559 96.5625 349.816C100.195 354.074 102.012 360.559 102.012 369.27V395.988L110.273 397.746V408H77.5195V397.746L84.9023 395.988V369.211C84.9023 364.523 84.1211 361.281 82.5586 359.484C81.0352 357.648 78.8086 356.73 75.8789 356.73C73.2227 356.73 70.9766 357.492 69.1406 359.016C67.3047 360.5 65.9766 362.473 65.1562 364.934V395.988L72.0703 397.746V408H41.1914V397.746L48.1055 395.988V369.211C48.1055 364.641 47.3242 361.418 45.7617 359.543C44.2383 357.668 41.9727 356.73 38.9648 356.73C36.543 356.73 34.4531 357.219 32.6953 358.195C30.9375 359.172 29.4922 360.578 28.3594 362.414V395.988L35.7422 397.746V408H3.04688ZM153.223 409.23C149.277 409.23 145.918 408.469 143.145 406.945C140.371 405.383 138.047 403.137 136.172 400.207L134.941 408H120.176V328.664L111.094 326.906V316.594H137.227V351.34C139.062 348.801 141.309 346.848 143.965 345.48C146.66 344.113 149.785 343.43 153.34 343.43C158.457 343.43 162.793 344.816 166.348 347.59C169.941 350.324 172.676 354.191 174.551 359.191C176.426 364.191 177.363 370.07 177.363 376.828V378.059C177.363 384.348 176.426 389.836 174.551 394.523C172.676 399.172 169.941 402.785 166.348 405.363C162.754 407.941 158.379 409.23 153.223 409.23ZM148.008 395.93C152.383 395.93 155.527 394.387 157.441 391.301C159.355 388.176 160.312 383.762 160.312 378.059V376.828C160.312 372.688 159.883 369.133 159.023 366.164C158.203 363.156 156.895 360.832 155.098 359.191C153.34 357.551 151.035 356.73 148.184 356.73C145.605 356.73 143.398 357.336 141.562 358.547C139.727 359.758 138.281 361.398 137.227 363.469V389.953C138.398 391.906 139.883 393.391 141.68 394.406C143.516 395.422 145.625 395.93 148.008 395.93ZM206.543 409.23C200.254 409.23 195.254 407.551 191.543 404.191C187.832 400.793 185.977 396.184 185.977 390.363C185.977 384.387 188.398 379.543 193.242 375.832C198.086 372.082 205.176 370.207 214.512 370.207H222.891V365.52C222.891 362.473 221.992 360.012 220.195 358.137C218.438 356.223 215.781 355.266 212.227 355.266C210.391 355.266 208.75 355.5 207.305 355.969C205.859 356.398 204.531 357.023 203.32 357.844L201.973 366.223H189.668L189.434 349.758C192.754 347.883 196.348 346.359 200.215 345.188C204.082 344.016 208.398 343.43 213.164 343.43C221.445 343.43 227.988 345.363 232.793 349.23C237.598 353.059 240 358.547 240 365.695V391.828C240 392.688 240 393.547 240 394.406C240.039 395.227 240.117 396.027 240.234 396.809L246.855 397.746V408H225.645C225.215 406.906 224.785 405.734 224.355 404.484C223.926 403.234 223.613 401.984 223.418 400.734C221.387 403.312 218.984 405.383 216.211 406.945C213.477 408.469 210.254 409.23 206.543 409.23ZM211.113 396.574C213.496 396.574 215.762 396.047 217.91 394.992C220.059 393.898 221.719 392.473 222.891 390.715V380.695H214.453C210.703 380.695 207.852 381.555 205.898 383.273C203.984 384.992 203.027 387.062 203.027 389.484C203.027 391.75 203.73 393.508 205.137 394.758C206.582 395.969 208.574 396.574 211.113 396.574ZM254.238 408V397.746L262.441 395.988V356.672L253.359 354.914V344.602H278.379L279.023 352.453L279.141 353.859C280.703 350.422 282.637 347.824 284.941 346.066C287.246 344.309 290 343.43 293.203 343.43C294.219 343.43 295.332 343.527 296.543 343.723C297.754 343.879 298.828 344.094 299.766 344.367L297.949 360.129L289.453 359.66C287.031 359.543 285.059 359.953 283.535 360.891C282.051 361.828 280.723 363.176 279.551 364.934V395.988L287.754 397.746V408H254.238ZM334.043 409.23C327.988 409.23 322.695 407.902 318.164 405.246C313.633 402.551 310.117 398.859 307.617 394.172C305.156 389.484 303.926 384.133 303.926 378.117V375.773C303.926 369.484 305.098 363.918 307.441 359.074C309.785 354.191 313.086 350.363 317.344 347.59C321.641 344.816 326.699 343.43 332.52 343.43C338.262 343.43 343.086 344.562 346.992 346.828C350.898 349.094 353.867 352.355 355.898 356.613C357.93 360.871 358.945 366.027 358.945 372.082V381.398H321.68L321.562 381.75C321.797 384.523 322.48 387.004 323.613 389.191C324.785 391.34 326.426 393.039 328.535 394.289C330.645 395.5 333.203 396.105 336.211 396.105C339.336 396.105 342.246 395.715 344.941 394.934C347.676 394.113 350.332 392.922 352.91 391.359L357.539 401.906C354.922 404.016 351.621 405.773 347.637 407.18C343.691 408.547 339.16 409.23 334.043 409.23ZM321.797 370.09H342.949V368.566C342.949 365.988 342.598 363.781 341.895 361.945C341.23 360.07 340.137 358.625 338.613 357.609C337.129 356.594 335.195 356.086 332.812 356.086C330.547 356.086 328.633 356.691 327.07 357.902C325.508 359.074 324.277 360.695 323.379 362.766C322.52 364.836 321.934 367.18 321.621 369.797L321.797 370.09Z" fill="white"/>
</svg>
